<?xml version="1.0" encoding="UTF-8"?><svg id="Layer_2" xmlns="http://www.w3.org/2000/svg" viewBox="0 0 1375.83 147.29"><defs><style>.cls-1{fill:#fcf9f7;stroke-width:0px;}</style></defs><g id="Layer_1-2"><path class="cls-1" d="M856.82,145.2c-.3,1.79-2.39,2.09-4.33,2.09-1.49,0-2.84-.15-3.73-.15h-14.77c-5.37,0-10.74-.15-15.82-2.09-6.27-2.39-10.59-7.46-14.18-12.83-2.24-3.43-18.44-38.36-20.23-41.95-.45-.9-.9-1.94-1.49-2.84-.15-.45-.6-1.34-1.19-2.39-2.09-3.88-3.13-5.82-3.58-6.56-.9-1.49-2.54-4.03-5.52-6.57-.15-.15-.3-.15-.45-.3-3.28,0-6.56.15-9.85.3-.6,0,.45,10.74.75,12.08.75,6.27,2.39,12.83,6.72,17.61.9,1.19,2.09,2.24,3.43,2.98,1.49.9,4.18,1.19,4.03,3.28,0,1.64-1.34,2.09-2.54,2.09-5.52,0-18.06.15-30.14.15s-24.02-.15-28.35-.15h-1.94c-1.34,0-2.68-.15-2.83-1.79-.3-2.24,2.54-2.69,4.03-3.43,1.34-.9,2.54-1.94,3.58-3.13,5.67-7.16,6.27-10.74,7.01-19.39,1.04-15.22,1.04-30.29,0-45.51-.9-9.7-1.49-22.68-10.59-28.5-1.49-.75-4.18-1.19-4.03-3.43.15-1.34,1.19-1.79,2.39-1.79,17.91-.15,35.81-.3,53.72-.75h5.97c7.46,0,15.07.3,22.38,1.94,24.32,5.07,47,27.61,29.24,48.94-5.22,6.42-12.83,10.74-21.19,13.58,7.31,3.43,11.34,8.65,14.18,13.28,2.24,3.73,18.14,38.96,19.93,42.69,1.49,3.58,2.84,6.86,4.48,9.7,1.94,3.28,4.62,6.27,8.06,8.06,1.19.6,3.73,1.19,5.37,2.24,1.04.6,1.64,1.34,1.49,2.54ZM786.45,12.53c-4.93-3.73-11.79-5.82-18.2-5.82h-.75c-1.79.15-3.88.45-4.92,1.79-.9.9-.9,2.39-.9,3.58v49.99c0,1.19,0,2.54.9,3.43.9,1.19,2.54,1.49,4.18,1.49h1.19c9.1-.6,17.16-5.67,22.23-12.24,8.95-11.94,9.25-32.38-3.73-42.23Z"/><path class="cls-1" d="M935.17,81.2c-.99,7.78-2.12,15.71-3.11,23.63-.28,1.56-.57,3.26-1.84,4.25-.99.57-2.26.57-3.4.57-7.92-.14-26.75-.14-45.14-.14h-45c-1.27,0-2.55-.14-2.69-1.7-.28-2.12,2.41-2.55,3.82-3.25,1.27-.85,2.41-1.84,3.4-2.97,5.38-6.79,5.94-15.85,6.65-24.06.99-14.43.99-28.73,0-43.16-.85-9.2-1.42-21.51-10.05-27.03-1.42-.71-3.96-1.13-3.82-3.25.14-1.27,1.13-1.7,2.26-1.7,9.48-.14,68.63,0,88.73-.28,1.42,0,2.97,0,4.25.99,1.27.99,1.56,2.83,1.7,4.39.99,6.93,1.84,14.01,2.83,20.94.14,1.13.14,2.69-.85,3.25-.28.14-.57.28-.99.28s-.99-.28-1.42-.57c-.71-.57-1.13-1.27-1.56-2.12-6.23-10.33-16.98-17.83-28.87-20.09-1.7-.42-3.54-.57-5.38-.57-2.26,0-4.39.28-6.37,1.27-7.64,3.68-5.66,13.02-5.66,19.81v15c.14,6.93,3.68,10.33,10.47,10.33,2.26,0,4.53-.71,6.65-1.98,1.27-.85,2.41-1.98,3.4-3.4,1.13-1.7,1.56-3.68,1.7-5.8.14-1.41-.57-4.67,1.7-4.81,2.69-.14,1.84,3.68,1.84,5.38v29.01c0,1.42.42,4.1-1.84,3.96-2.12-.28-1.7-2.83-1.7-4.1s-.14-2.69-.71-4.25c-.85-2.69-2.41-5.1-4.39-6.79-2.12-1.84-4.39-2.69-6.65-2.69-2.83,0-5.1,1.13-7.22,3.54-.99.42-1.84,2.83-2.12,3.82-.71,1.98-.85,3.96-.99,5.8-.14,4.67,0,9.34,0,14.01-.14,5.8-1.13,12.31,4.81,15.57,2.26,1.27,4.81,1.7,7.36,1.7,1.13,0,2.41-.14,3.68-.28,13.73-1.56,26.46-10.47,32.55-23.07.42-.57.71-1.42,1.27-1.84.28-.28.85-.57,1.27-.57.28,0,.57.14.85.28,0,0,.14,0,.14.14.71.57.57,1.56.42,2.55Z"/><path class="cls-1" d="M1041.37,81.2c-.99,7.78-2.12,15.71-3.11,23.63-.28,1.56-.57,3.26-1.84,4.25-.99.57-2.26.57-3.4.57-7.92-.14-26.75-.14-45.14-.14h-45c-1.27,0-2.55-.14-2.69-1.7-.28-2.12,2.41-2.55,3.82-3.25,1.27-.85,2.41-1.84,3.4-2.97,5.38-6.79,5.94-15.85,6.65-24.06.99-14.43.99-28.73,0-43.16-.85-9.2-1.42-21.51-10.05-27.03-1.42-.71-3.96-1.13-3.82-3.25.14-1.27,1.13-1.7,2.26-1.7,9.48-.14,68.63,0,88.73-.28,1.42,0,2.97,0,4.25.99s1.56,2.83,1.7,4.39c.99,6.93,1.84,14.01,2.83,20.94.14,1.13.14,2.69-.85,3.25-.28.14-.57.28-.99.28s-.99-.28-1.42-.57c-.71-.57-1.13-1.27-1.56-2.12-6.23-10.33-16.98-17.83-28.87-20.09-1.7-.42-3.54-.57-5.38-.57-2.26,0-4.39.28-6.37,1.27-7.64,3.68-5.66,13.02-5.66,19.81v15c.14,6.93,3.68,10.33,10.47,10.33,2.26,0,4.53-.71,6.65-1.98,1.27-.85,2.41-1.98,3.4-3.4,1.13-1.7,1.56-3.68,1.7-5.8.14-1.41-.57-4.67,1.7-4.81,2.69-.14,1.84,3.68,1.84,5.38v29.01c0,1.42.42,4.1-1.84,3.96-2.12-.28-1.7-2.83-1.7-4.1s-.14-2.69-.71-4.25c-.85-2.69-2.41-5.1-4.39-6.79-2.12-1.84-4.39-2.69-6.65-2.69-2.83,0-5.1,1.13-7.22,3.54-.99.42-1.84,2.83-2.12,3.82-.71,1.98-.85,3.96-.99,5.8-.14,4.67,0,9.34,0,14.01-.14,5.8-1.13,12.31,4.81,15.57,2.26,1.27,4.81,1.7,7.36,1.7,1.13,0,2.41-.14,3.68-.28,13.73-1.56,26.46-10.47,32.55-23.07.42-.57.71-1.42,1.27-1.84.28-.28.85-.57,1.27-.57.28,0,.57.14.85.28,0,0,.14,0,.14.14.71.57.57,1.56.42,2.55Z"/><path class="cls-1" d="M1136.51,67.5c2.55,8.77,0,18.68-5.66,26.04-5.66,7.22-14.15,12.03-23.07,14.29-4.81,1.27-9.76,1.7-14.72,1.7-4.25,0-8.49-.28-12.74-.99-6.93-1.13-14.01-2.83-19.95-6.65-6.09-3.68-11.04-9.48-12.31-16.42-1.7-8.63,2.55-17.97,10.19-22.22,2.97-1.7,6.51-2.55,10.05-2.55,5.1,0,10.33,1.84,14.15,5.38,6.37,5.94,8.35,15.99,4.67,23.92-1.13,2.55-2.97,5.24-2.41,8.07.57,2.97,3.82,4.95,6.8,5.38.42,0,.85.14,1.27.14,7.08,0,13.44-6.23,14.58-13.3,1.27-7.36-2.12-15-7.22-20.52-5.1-5.52-11.89-9.34-18.4-13.02-6.65-3.68-13.3-7.36-18.54-12.74-5.38-5.38-9.06-12.74-8.35-20.24.71-6.23,4.67-12.03,9.76-15.85,7.64-5.66,17.69-7.92,27.45-7.92,4.95,0,9.62.57,14.01,1.56,6.79,1.42,13.87,3.96,18.25,9.48,4.1,5.38,4.95,12.31.99,17.97-2.83,3.96-7.64,6.23-12.59,6.23-2.26,0-4.53-.42-6.65-1.56-6.37-3.4-9.48-11.89-6.94-18.54.71-1.98,1.84-3.82,1.7-5.94-.28-3.25-4.1-5.24-7.5-5.24h-.42c-6.94.57-12.45,8.21-10.75,15,.99,4.25,4.25,7.5,7.78,10.19,8.07,6.37,17.83,10.33,26.6,15.71,5.66,3.25,11.04,7.5,14.86,12.59,2.4,2.97,4.1,6.37,5.1,10.05Z"/><path class="cls-1" d="M1259.2,56.04c0,15.43-5.38,28.44-16.41,38.92-10.9,10.61-24.77,15.99-41.75,15.99s-30.85-5.38-41.75-15.99c-10.9-10.47-16.42-23.49-16.42-38.92s5.38-28.3,16.27-38.92c10.9-10.61,24.91-15.99,41.89-15.99s30.99,5.38,41.89,15.99c10.9,10.61,16.27,23.49,16.27,38.92ZM1222.41,56.46c.14-13.3-1.84-25.19-5.95-35.52-3.96-10.33-9.2-15.99-15.42-16.84h-1.56c-6.51.14-11.46,5.24-15,15.14-3.54,10.05-5.24,22.22-5.38,36.65,0,13.3,2.12,25.05,6.37,35.24,4.25,10.19,9.48,15.71,15.71,16.56.85.14,1.41.14,1.84.14,6.51-.28,11.32-5.24,14.58-14.86,3.25-9.77,4.81-21.79,4.81-36.51Z"/><path class="cls-1" d="M1375.81,4.67c-.14.99-.99,1.56-1.84,1.84-5.94,1.7-9.91,6.23-12.03,11.89-2.12,5.52-2.69,11.46-2.97,17.41-.14,3.4,0,6.79.14,10.19,0,10.9.14,21.79.28,32.83,0,8.92,3.4,24.48-6.37,29.29-1.55.71-3.25,1.13-4.81,1.13-3.68,0-7.36-1.84-9.77-4.67-10.61-12.45-47.97-59.15-56.32-69.48-.28,7.22-.28,37.78,0,44.86.28,9.48,2.69,22.08,13.02,25.05,1.13.28,1.84,1.7,1.42,2.97-.43.85-1.27,1.42-2.12,1.42h-35.24c-1.41,0-2.4-1.27-2.26-2.69.14-.85.99-1.56,1.84-1.84,5.94-1.56,9.91-6.08,12.03-11.75,2.12-5.52,2.55-11.6,2.97-17.41,0-1.42-.56-44.15-.71-49.11,0-2.83.14-5.66-.85-8.21-.99-2.69-2.69-5.09-4.95-6.65-2.55-1.84-7.5-2.69-8.21-6.23-.14-.85,0-1.56.28-2.26.56-.71,1.41-1.27,2.55-1.27h33.68c.14,0,.14.14.14.14,7.5.71,11.46,6.09,15.85,11.6,5.38,6.79,37.5,47.27,39.2,49.39,0-3.4.14-24.62-.14-31.56-.42-9.48-2.69-22.08-13.02-25.05-1.13-.42-1.98-1.7-1.42-2.97.28-.85,1.27-1.42,2.12-1.42,5.94-.14,11.75-.14,17.69-.14s11.75,0,17.55.14c1.41,0,2.4,1.13,2.26,2.55Z"/><path class="cls-1" d="M633.9,31.62h3.06v19.67c1.47-3.06,4.47-5.88,10.48-5.88,7.23,0,12.56,5.94,12.56,15.38s-4.78,16.73-13.36,16.73c-5.15,0-8.09-2.08-9.68-5.58,0,1.96-.06,3.98-.12,4.84h-3c.06-3.49.06-6.99.06-10.48V31.62ZM656.76,60.85c0-7.66-3.8-12.56-9.62-12.56-7.66,0-10.36,5.21-10.36,13.24,0,7.23,2.39,13.11,9.99,13.11,6.19,0,9.99-5.15,9.99-13.79Z"/><path class="cls-1" d="M667.36,46.14c6.19,17.53,8.89,24.76,9.93,28.07h.06c1.23-3.74,3.68-10.85,9.62-28.07h3.19l-11.52,32.42c-3.25,9.07-5.45,11.09-10.97,11.09-1.1,0-1.84-.06-2.82-.18v-3.06c.92.12,1.78.18,2.76.18,4.41,0,5.82-2.14,8.09-8.46l-11.7-31.99h3.37Z"/><path class="cls-1" d="M121.3,57.01c.14,7.92-1.7,15.99-5.38,23.49-3.82,7.64-9.77,14.15-16.56,19.25-7.22,5.1-15.42,8.63-24.06,10.47-4.39.85-8.92,1.13-13.44,1.13-6.23,0-12.59-.42-18.82-.57H2.71c-1.27,0-2.55-.14-2.69-1.7-.28-2.12,2.41-2.55,3.82-3.25,1.27-.85,2.41-1.84,3.4-2.97,5.38-6.79,5.94-15.85,6.65-24.06.99-14.43.99-28.73,0-43.16-.85-9.2-1.42-21.51-10.05-27.03C2.43,7.9-.12,7.48.02,5.36c.14-1.27,1.13-1.7,2.26-1.7h28.73c14.01,0,28.3,0,30-.14h2.55c10.9,0,21.94,2.55,31.42,8.07,16.42,9.34,26.04,27.17,26.32,45.43ZM82.24,41.16c-1.56-7.64-4.1-15.28-9.06-21.65-2.83-3.68-6.65-6.93-11.04-9.06-1.98-1.13-6.37-2.97-9.62-2.97-1.84,0-3.25.42-4.1,1.84-.71,1.42-.71,2.69-.71,4.25v89.58c0,.99,0,1.7.42,2.41.85,1.56,2.4,1.98,4.25,1.98,3.25-.14,7.22-1.7,8.92-2.55,5.09-2.26,9.2-5.8,12.31-9.91,4.67-6.23,7.08-13.44,8.35-20.66,2.26-11.18,2.26-22.36.28-33.26Z"/><path class="cls-1" d="M221.92,82.48c-.99,7.78-2.12,15.71-3.11,23.63-.28,1.56-.57,3.26-1.84,4.25-.99.57-2.26.57-3.4.57-7.92-.14-26.75-.14-45.14-.14h-45c-1.27,0-2.55-.14-2.69-1.7-.28-2.12,2.41-2.55,3.82-3.25,1.27-.85,2.41-1.84,3.4-2.97,5.38-6.79,5.94-15.85,6.65-24.06.99-14.43.99-28.73,0-43.16-.85-9.2-1.42-21.51-10.05-27.03-1.42-.71-3.96-1.13-3.82-3.25.14-1.27,1.13-1.7,2.26-1.7,9.48-.14,68.63,0,88.73-.28,1.42,0,2.97,0,4.25.99s1.56,2.83,1.7,4.39c.99,6.93,1.84,14.01,2.83,20.94.14,1.13.14,2.69-.85,3.25-.28.14-.57.28-.99.28s-.99-.28-1.42-.57c-.71-.57-1.13-1.27-1.56-2.12-6.23-10.33-16.98-17.83-28.87-20.09-1.7-.42-3.54-.57-5.38-.57-2.26,0-4.39.28-6.37,1.27-7.64,3.68-5.66,13.02-5.66,19.81v15c.14,6.93,3.68,10.33,10.47,10.33,2.26,0,4.53-.71,6.65-1.98,1.27-.85,2.41-1.98,3.4-3.4,1.13-1.7,1.56-3.68,1.7-5.8.14-1.41-.57-4.67,1.7-4.81,2.69-.14,1.84,3.68,1.84,5.38v29.01c0,1.42.42,4.1-1.84,3.96-2.12-.28-1.7-2.83-1.7-4.1s-.14-2.69-.71-4.25c-.85-2.69-2.41-5.1-4.39-6.79-2.12-1.84-4.39-2.69-6.65-2.69-2.83,0-5.1,1.13-7.22,3.54-.99.42-1.84,2.83-2.12,3.82-.71,1.98-.85,3.96-.99,5.8-.14,4.67,0,9.34,0,14.01-.14,5.8-1.13,12.31,4.81,15.57,2.26,1.27,4.81,1.7,7.36,1.7,1.13,0,2.41-.14,3.68-.28,13.73-1.56,26.46-10.47,32.55-23.07.42-.57.71-1.42,1.27-1.84.28-.28.85-.57,1.27-.57.28,0,.57.14.85.28,0,0,.14,0,.14.14.71.57.57,1.56.42,2.55Z"/><path class="cls-1" d="M316.88,69.04c2.55,8.77,0,18.68-5.66,26.04-5.66,7.22-14.15,12.03-23.07,14.29-4.81,1.27-9.77,1.7-14.72,1.7-4.25,0-8.49-.28-12.74-.99-6.93-1.13-14.01-2.83-19.95-6.65-6.09-3.68-11.04-9.48-12.31-16.42-1.7-8.63,2.55-17.97,10.19-22.22,2.97-1.7,6.51-2.55,10.05-2.55,5.1,0,10.33,1.84,14.15,5.38,6.37,5.94,8.35,15.99,4.67,23.92-1.13,2.55-2.97,5.24-2.41,8.07.57,2.97,3.82,4.95,6.79,5.38.42,0,.85.14,1.27.14,7.08,0,13.44-6.23,14.58-13.3,1.27-7.36-2.12-15-7.22-20.52-5.09-5.52-11.89-9.34-18.4-13.02-6.65-3.68-13.3-7.36-18.54-12.74-5.38-5.38-9.06-12.74-8.35-20.24.71-6.23,4.67-12.03,9.77-15.85,7.64-5.66,17.69-7.92,27.45-7.92,4.95,0,9.62.57,14.01,1.56,6.79,1.42,13.87,3.96,18.26,9.48,4.1,5.38,4.95,12.31.99,17.97-2.83,3.96-7.64,6.23-12.59,6.23-2.26,0-4.53-.42-6.65-1.56-6.37-3.4-9.48-11.89-6.93-18.54.71-1.98,1.84-3.82,1.7-5.94-.28-3.25-4.1-5.24-7.5-5.24h-.42c-6.93.57-12.45,8.21-10.76,15,.99,4.25,4.25,7.5,7.78,10.19,8.07,6.37,17.83,10.33,26.61,15.71,5.66,3.25,11.04,7.5,14.86,12.59,2.41,2.97,4.1,6.37,5.09,10.05Z"/><path class="cls-1" d="M495.62,67.62c-5.38,2.55-8.92,8.07-10.33,13.73-1.27,5.8-.71,11.89.28,17.69.42,1.84.71,3.82.42,5.66-.42,1.84-1.84,3.54-3.68,3.68-1.84.14-3.25-1.13-4.81-1.98-2.69-1.7-5.8-2.26-8.92-2.26-1.98,0-3.96.14-5.8.57-4.95.99-9.62,2.97-14.43,4.39-5.24,1.41-10.61,2.26-16.13,2.26-8.21,0-16.28-1.7-23.78-5.1-12.31-5.66-22.36-16.42-27.03-29.15-6.51-17.69-1.98-38.63,10.33-52.93,4.25-4.95,9.62-9.2,15.28-12.45,10.33-6.09,22.93-9.62,35.38-9.62,9.2,0,18.4,1.98,26.46,6.23,2.26,1.27,9.91,6.08,14.15,14.29,3.68,6.93,3.68,15.28-1.56,21.65-3.25,3.82-7.92,6.23-13.02,6.23s-10.33-2.55-13.59-6.79c-1.98-2.69-3.11-5.94-3.25-9.34-.14-3.68,1.27-7.08,2.4-10.61.57-1.98,1.27-3.82,1.42-5.94.14-3.11-1.13-6.37-4.39-7.36-1.13-.28-2.12-.42-3.25-.42-4.39,0-8.63,2.26-11.89,4.81-14.43,11.04-16.84,30.57-15.43,47.41.85,11.18,4.25,22.22,9.77,31.98,1.55,2.83,3.4,5.52,5.94,7.64,1.98,1.7,4.67,2.97,7.5,2.97.43,0,.99,0,1.42-.14,6.79-.99,7.36-8.21,7.22-13.73,0-4.67-.28-9.48-1.84-13.87-1.56-4.53-4.53-8.63-8.77-10.47-.99-.57-2.4-1.56-1.84-2.55.28-.57,1.13-.57,1.84-.57,17.83,0,35.52.14,53.35.28h.85c.71,0,1.55,0,1.98.57.99,1.27-.85,2.69-2.26,3.25Z"/><path class="cls-1" d="M614.64,6.21c-.14.99-.99,1.56-1.84,1.84-5.94,1.7-9.9,6.23-12.03,11.89-2.12,5.52-2.69,11.46-2.97,17.41-.14,3.4,0,6.79.14,10.19,0,10.9.14,21.79.28,32.83,0,8.92,3.4,24.48-6.37,29.29-1.56.71-3.25,1.13-4.81,1.13-3.68,0-7.36-1.84-9.76-4.67-10.61-12.45-47.98-59.15-56.32-69.48-.28,7.22-.28,37.78,0,44.86.28,9.48,2.69,22.08,13.02,25.05,1.13.28,1.84,1.7,1.41,2.97-.42.85-1.27,1.42-2.12,1.42h-35.24c-1.42,0-2.41-1.27-2.26-2.69.14-.85.99-1.56,1.84-1.84,5.95-1.56,9.91-6.08,12.03-11.75,2.12-5.52,2.55-11.6,2.97-17.41,0-1.42-.57-44.15-.71-49.11,0-2.83.14-5.66-.85-8.21-.99-2.69-2.69-5.09-4.95-6.65-2.55-1.84-7.5-2.69-8.21-6.23-.14-.85,0-1.56.28-2.26.57-.71,1.41-1.27,2.55-1.27h33.68c.14,0,.14.14.14.14,7.5.71,11.46,6.09,15.85,11.6,5.38,6.79,37.5,47.27,39.2,49.39,0-3.4.14-24.62-.14-31.56-.42-9.48-2.69-22.08-13.02-25.05-1.13-.42-1.98-1.7-1.41-2.97.28-.85,1.27-1.42,2.12-1.42,5.94-.14,11.75-.14,17.69-.14s11.75,0,17.55.14c1.41,0,2.4,1.13,2.26,2.55Z"/><path class="cls-1" d="M381.91,105.88c0,1.54-1.26,1.96-2.38,1.96-5.17,0-16.92.14-28.25.14s-22.51-.14-26.57-.14h-1.82c-1.26,0-2.52-.14-2.66-1.68-.28-2.1,2.38-2.52,3.78-3.36,1.26-.7,2.38-1.68,3.36-2.8,5.31-6.71,5.87-15.66,6.57-23.77.98-14.26.98-28.39,0-42.65-.84-9.09-1.4-21.26-9.93-26.71-1.4-.7-3.92-1.12-3.78-3.22.14-1.26,1.12-1.68,2.24-1.68h56.91c1.26,0,2.52.14,2.52,1.82,0,2.1-2.38,2.38-3.78,3.22-1.26.84-2.52,1.82-3.5,2.94-5.17,6.57-5.87,15.52-6.57,23.63-.98,14.26-.98,28.39,0,42.65.7,7.83,1.26,17.48,6.85,23.77.84,1.12,1.96,2.1,3.22,2.8,1.4.84,3.92,1.12,3.78,3.08Z"/></g></svg>