<?xml version="1.0" encoding="UTF-8"?><svg id="Layer_2" xmlns="http://www.w3.org/2000/svg" viewBox="0 0 698.24 302.3"><defs><style>.cls-1{fill:#fcf9f7;stroke-width:0px;}</style></defs><g id="Layer_1-2"><path class="cls-1" d="M639.24,31.55h3.21v20.63c1.54-3.21,4.69-6.17,10.99-6.17,7.58,0,13.17,6.23,13.17,16.13s-5.01,17.54-14.01,17.54c-5.4,0-8.48-2.18-10.15-5.85,0,2.06-.06,4.18-.13,5.08h-3.15c.06-3.66.06-7.33.06-10.99V31.55ZM663.21,62.2c0-8.03-3.98-13.17-10.09-13.17-8.03,0-10.86,5.46-10.86,13.88,0,7.58,2.51,13.75,10.48,13.75,6.49,0,10.47-5.4,10.47-14.46Z"/><path class="cls-1" d="M674.33,46.78c6.49,18.38,9.32,25.96,10.41,29.43h.06c1.29-3.92,3.86-11.38,10.09-29.43h3.34l-12.08,34c-3.41,9.51-5.72,11.63-11.5,11.63-1.16,0-1.93-.06-2.96-.19v-3.21c.96.13,1.86.19,2.89.19,4.63,0,6.11-2.25,8.48-8.87l-12.27-33.55h3.53Z"/><path class="cls-1" d="M127.97,58.18c.15,8.31-1.78,16.77-5.64,24.64-4.01,8.01-10.24,14.84-17.36,20.18-7.57,5.34-16.18,9.05-25.23,10.98-4.6.89-9.35,1.19-14.1,1.19-6.53,0-13.21-.45-19.74-.59H3.6c-1.34,0-2.67-.15-2.82-1.78-.3-2.23,2.52-2.67,4.01-3.41,1.34-.89,2.52-1.93,3.56-3.12,5.64-7.12,6.23-16.62,6.98-25.23,1.04-15.14,1.04-30.13,0-45.26-.89-9.65-1.48-22.56-10.54-28.35-1.48-.74-4.16-1.19-4.01-3.41.15-1.34,1.19-1.78,2.37-1.78h30.13c14.69,0,29.68,0,31.46-.15h2.67c11.43,0,23,2.67,32.95,8.46,17.22,9.8,27.31,28.5,27.6,47.64ZM87.01,41.56c-1.63-8.02-4.3-16.03-9.5-22.71-2.97-3.86-6.98-7.27-11.58-9.5-2.08-1.19-6.68-3.12-10.09-3.12-1.93,0-3.41.44-4.3,1.93-.74,1.48-.74,2.82-.74,4.45v93.95c0,1.04,0,1.78.45,2.52.89,1.63,2.52,2.08,4.45,2.08,3.41-.15,7.57-1.78,9.35-2.67,5.34-2.37,9.65-6.09,12.91-10.39,4.9-6.53,7.42-14.1,8.76-21.67,2.37-11.72,2.37-23.45.3-34.88Z"/><path class="cls-1" d="M233.5,84.89c-1.04,8.16-2.23,16.47-3.27,24.78-.3,1.63-.59,3.41-1.93,4.45-1.04.59-2.37.59-3.56.59-8.31-.15-28.05-.15-47.34-.15h-47.19c-1.34,0-2.67-.15-2.82-1.78-.3-2.23,2.52-2.67,4.01-3.41,1.34-.89,2.52-1.93,3.56-3.12,5.64-7.12,6.23-16.62,6.98-25.23,1.04-15.14,1.04-30.13,0-45.26-.89-9.65-1.48-22.56-10.54-28.35-1.48-.74-4.16-1.19-4.01-3.41.15-1.34,1.19-1.78,2.37-1.78,9.94-.15,71.98,0,93.05-.3,1.48,0,3.12,0,4.45,1.04s1.63,2.97,1.78,4.6c1.04,7.27,1.93,14.69,2.97,21.97.15,1.19.15,2.82-.89,3.41-.3.15-.59.3-1.04.3s-1.04-.3-1.48-.59c-.74-.59-1.19-1.34-1.63-2.23-6.53-10.83-17.81-18.7-30.28-21.07-1.78-.45-3.71-.59-5.64-.59-2.37,0-4.6.3-6.68,1.34-8.01,3.86-5.94,13.65-5.94,20.78v15.73c.15,7.27,3.86,10.83,10.98,10.83,2.37,0,4.75-.74,6.98-2.08,1.34-.89,2.52-2.08,3.56-3.56,1.19-1.78,1.63-3.86,1.78-6.09.15-1.48-.59-4.9,1.78-5.05,2.82-.15,1.93,3.86,1.93,5.64v30.42c0,1.48.45,4.3-1.93,4.16-2.23-.3-1.78-2.97-1.78-4.3s-.15-2.82-.74-4.45c-.89-2.82-2.52-5.34-4.6-7.12-2.23-1.93-4.6-2.82-6.98-2.82-2.97,0-5.34,1.19-7.57,3.71-1.04.45-1.93,2.97-2.23,4.01-.74,2.08-.89,4.15-1.04,6.09-.15,4.9,0,9.79,0,14.69-.15,6.09-1.19,12.91,5.05,16.33,2.37,1.34,5.05,1.78,7.72,1.78,1.19,0,2.52-.15,3.86-.3,14.4-1.63,27.75-10.98,34.13-24.19.45-.59.74-1.48,1.34-1.93.3-.3.89-.59,1.34-.59.3,0,.59.15.89.3,0,0,.15,0,.15.15.74.59.59,1.63.45,2.67Z"/><path class="cls-1" d="M235.24,232.85c-1.04,8.16-2.23,16.47-3.27,24.78-.3,1.63-.59,3.41-1.93,4.45-1.04.59-2.37.59-3.56.59-8.31-.15-28.05-.15-47.34-.15h-47.19c-1.34,0-2.67-.15-2.82-1.78-.3-2.23,2.52-2.67,4.01-3.41,1.34-.89,2.52-1.93,3.56-3.12,5.64-7.12,6.23-16.62,6.98-25.23,1.04-15.14,1.04-30.13,0-45.26-.89-9.65-1.48-22.56-10.54-28.35-1.48-.74-4.16-1.19-4.01-3.41.15-1.34,1.19-1.78,2.37-1.78,9.94-.15,71.98,0,93.05-.3,1.48,0,3.12,0,4.45,1.04s1.63,2.97,1.78,4.6c1.04,7.27,1.93,14.69,2.97,21.97.15,1.19.15,2.82-.89,3.41-.3.15-.59.3-1.04.3s-1.04-.3-1.48-.59c-.74-.59-1.19-1.34-1.63-2.23-6.53-10.83-17.81-18.7-30.28-21.07-1.78-.45-3.71-.59-5.64-.59-2.37,0-4.6.3-6.68,1.34-8.01,3.86-5.94,13.65-5.94,20.78v15.73c.15,7.27,3.86,10.83,10.98,10.83,2.37,0,4.75-.74,6.98-2.08,1.34-.89,2.52-2.08,3.56-3.56,1.19-1.78,1.63-3.86,1.78-6.09.15-1.48-.59-4.9,1.78-5.05,2.82-.15,1.93,3.86,1.93,5.64v30.42c0,1.48.45,4.3-1.93,4.16-2.23-.3-1.78-2.97-1.78-4.3s-.15-2.82-.74-4.45c-.89-2.82-2.52-5.34-4.6-7.12-2.23-1.93-4.6-2.82-6.98-2.82-2.97,0-5.34,1.19-7.57,3.71-1.04.45-1.93,2.97-2.23,4.01-.74,2.08-.89,4.15-1.04,6.09-.15,4.9,0,9.79,0,14.69-.15,6.09-1.19,12.91,5.05,16.33,2.37,1.34,5.05,1.78,7.72,1.78,1.19,0,2.52-.15,3.86-.3,14.4-1.63,27.75-10.98,34.13-24.19.45-.59.74-1.48,1.34-1.93.3-.3.89-.59,1.34-.59.3,0,.59.15.89.3,0,0,.15,0,.15.15.74.59.59,1.63.45,2.67Z"/><path class="cls-1" d="M346.62,232.85c-1.04,8.16-2.23,16.47-3.27,24.78-.3,1.63-.59,3.41-1.93,4.45-1.04.59-2.37.59-3.56.59-8.31-.15-28.05-.15-47.34-.15h-47.19c-1.34,0-2.67-.15-2.82-1.78-.3-2.23,2.52-2.67,4.01-3.41,1.34-.89,2.52-1.93,3.56-3.12,5.64-7.12,6.23-16.62,6.98-25.23,1.04-15.14,1.04-30.13,0-45.26-.89-9.65-1.48-22.56-10.54-28.35-1.48-.74-4.16-1.19-4.01-3.41.15-1.34,1.19-1.78,2.37-1.78,9.94-.15,71.98,0,93.05-.3,1.48,0,3.12,0,4.45,1.04s1.63,2.97,1.78,4.6c1.04,7.27,1.93,14.69,2.97,21.97.15,1.19.15,2.82-.89,3.41-.3.15-.59.3-1.04.3s-1.04-.3-1.48-.59c-.74-.59-1.19-1.34-1.63-2.23-6.53-10.83-17.81-18.7-30.28-21.07-1.78-.45-3.71-.59-5.64-.59-2.37,0-4.6.3-6.68,1.34-8.01,3.86-5.94,13.65-5.94,20.78v15.73c.15,7.27,3.86,10.83,10.98,10.83,2.37,0,4.75-.74,6.98-2.08,1.34-.89,2.52-2.08,3.56-3.56,1.19-1.78,1.63-3.86,1.78-6.09.15-1.48-.59-4.9,1.78-5.05,2.82-.15,1.93,3.86,1.93,5.64v30.42c0,1.48.45,4.3-1.93,4.16-2.23-.3-1.78-2.97-1.78-4.3s-.15-2.82-.74-4.45c-.89-2.82-2.52-5.34-4.6-7.12-2.23-1.93-4.6-2.82-6.98-2.82-2.97,0-5.34,1.19-7.57,3.71-1.04.45-1.93,2.97-2.23,4.01-.74,2.08-.89,4.15-1.04,6.09-.15,4.9,0,9.79,0,14.69-.15,6.09-1.19,12.91,5.05,16.33,2.37,1.34,5.05,1.78,7.72,1.78,1.19,0,2.52-.15,3.86-.3,14.4-1.63,27.75-10.98,34.13-24.19.45-.59.74-1.48,1.34-1.93.3-.3.89-.59,1.34-.59.3,0,.59.15.89.3,0,0,.15,0,.15.15.74.59.59,1.63.45,2.67Z"/><path class="cls-1" d="M333.08,70.79c2.67,9.2,0,19.59-5.94,27.31-5.94,7.57-14.84,12.62-24.19,14.99-5.05,1.33-10.24,1.78-15.43,1.78-4.45,0-8.91-.3-13.36-1.04-7.27-1.19-14.69-2.97-20.93-6.98-6.38-3.86-11.58-9.94-12.91-17.22-1.78-9.05,2.67-18.85,10.69-23.3,3.12-1.78,6.83-2.67,10.54-2.67,5.34,0,10.83,1.93,14.84,5.64,6.68,6.23,8.76,16.77,4.9,25.08-1.19,2.67-3.12,5.49-2.52,8.46.59,3.12,4.01,5.19,7.12,5.64.45,0,.89.15,1.34.15,7.42,0,14.1-6.53,15.29-13.95,1.34-7.72-2.23-15.73-7.57-21.52-5.34-5.79-12.47-9.8-19.29-13.65-6.98-3.86-13.95-7.72-19.44-13.36-5.64-5.64-9.5-13.36-8.76-21.22.74-6.53,4.9-12.62,10.24-16.62,8.01-5.94,18.55-8.31,28.79-8.31,5.19,0,10.09.59,14.69,1.63,7.12,1.48,14.54,4.16,19.15,9.94,4.3,5.64,5.19,12.91,1.04,18.85-2.97,4.16-8.01,6.53-13.21,6.53-2.37,0-4.75-.45-6.98-1.63-6.68-3.56-9.94-12.47-7.27-19.44.74-2.08,1.93-4.01,1.78-6.23-.3-3.41-4.3-5.49-7.87-5.49h-.44c-7.27.59-13.06,8.61-11.28,15.73,1.04,4.45,4.45,7.87,8.16,10.69,8.46,6.68,18.7,10.83,27.9,16.47,5.94,3.41,11.58,7.87,15.58,13.21,2.52,3.12,4.3,6.68,5.34,10.54Z"/><path class="cls-1" d="M520.53,69.31c-5.64,2.67-9.35,8.46-10.83,14.4-1.34,6.09-.74,12.47.3,18.55.44,1.93.74,4.01.44,5.94-.44,1.93-1.93,3.71-3.86,3.86-1.93.15-3.41-1.19-5.05-2.08-2.82-1.78-6.09-2.37-9.35-2.37-2.08,0-4.15.15-6.09.59-5.19,1.04-10.09,3.12-15.14,4.6-5.49,1.48-11.13,2.37-16.92,2.37-8.61,0-17.07-1.78-24.93-5.34-12.91-5.94-23.45-17.22-28.35-30.57-6.83-18.55-2.08-40.52,10.83-55.51,4.45-5.19,10.09-9.65,16.03-13.06,10.83-6.38,24.04-10.09,37.1-10.09,9.65,0,19.29,2.08,27.75,6.53,2.37,1.34,10.39,6.38,14.84,14.99,3.86,7.27,3.86,16.03-1.63,22.71-3.41,4.01-8.31,6.53-13.65,6.53s-10.83-2.67-14.25-7.12c-2.08-2.82-3.27-6.23-3.41-9.8-.15-3.86,1.34-7.42,2.52-11.13.59-2.08,1.34-4.01,1.49-6.23.15-3.26-1.19-6.68-4.6-7.72-1.19-.3-2.23-.45-3.41-.45-4.6,0-9.05,2.37-12.47,5.05-15.14,11.58-17.66,32.06-16.18,49.72.89,11.72,4.45,23.3,10.24,33.54,1.63,2.97,3.56,5.79,6.23,8.01,2.08,1.78,4.9,3.12,7.87,3.12.45,0,1.04,0,1.49-.15,7.12-1.04,7.72-8.61,7.57-14.4,0-4.9-.3-9.94-1.93-14.54-1.63-4.75-4.75-9.05-9.2-10.98-1.04-.59-2.52-1.63-1.93-2.67.3-.59,1.19-.59,1.93-.59,18.7,0,37.25.15,55.95.3h.89c.74,0,1.63,0,2.08.59,1.04,1.34-.89,2.82-2.37,3.41Z"/><path class="cls-1" d="M645.35,4.9c-.15,1.04-1.04,1.63-1.93,1.93-6.23,1.78-10.39,6.53-12.61,12.47-2.22,5.79-2.82,12.02-3.12,18.26-.15,3.56,0,7.12.15,10.69,0,11.43.15,22.86.3,34.43,0,9.35,3.56,25.68-6.68,30.72-1.63.74-3.41,1.19-5.05,1.19-3.86,0-7.72-1.93-10.24-4.9-11.13-13.06-50.31-62.04-59.07-72.87-.29,7.57-.29,39.63,0,47.05.3,9.94,2.82,23.15,13.66,26.27,1.19.3,1.93,1.78,1.48,3.12-.44.89-1.34,1.48-2.23,1.48h-36.95c-1.49,0-2.52-1.34-2.37-2.82.15-.89,1.04-1.63,1.93-1.93,6.23-1.63,10.39-6.38,12.61-12.32,2.23-5.79,2.67-12.17,3.12-18.25,0-1.48-.59-46.3-.74-51.5,0-2.97.15-5.94-.89-8.61-1.04-2.82-2.82-5.34-5.2-6.98-2.67-1.93-7.87-2.82-8.61-6.53-.15-.89,0-1.63.3-2.37.59-.74,1.48-1.34,2.67-1.34h35.32c.15,0,.15.15.15.15,7.87.74,12.02,6.38,16.62,12.17,5.64,7.12,39.33,49.57,41.11,51.8,0-3.56.15-25.82-.15-33.1-.44-9.94-2.82-23.15-13.65-26.27-1.19-.45-2.08-1.78-1.48-3.12.29-.89,1.33-1.48,2.22-1.48,6.23-.15,12.32-.15,18.55-.15s12.32,0,18.4.15c1.48,0,2.52,1.19,2.37,2.67Z"/><path class="cls-1" d="M446.39,218.48c2.67,9.2,0,19.59-5.94,27.31-5.94,7.57-14.84,12.62-24.19,14.99-5.05,1.33-10.24,1.78-15.44,1.78-4.45,0-8.9-.3-13.36-1.04-7.27-1.19-14.69-2.97-20.93-6.98-6.38-3.86-11.58-9.94-12.91-17.22-1.78-9.05,2.67-18.85,10.69-23.3,3.12-1.78,6.83-2.67,10.54-2.67,5.34,0,10.83,1.93,14.84,5.64,6.68,6.23,8.75,16.77,4.9,25.08-1.19,2.67-3.12,5.49-2.52,8.46.59,3.12,4.01,5.19,7.13,5.64.44,0,.89.15,1.33.15,7.42,0,14.1-6.53,15.29-13.95,1.34-7.72-2.22-15.73-7.57-21.52-5.34-5.79-12.47-9.8-19.29-13.65-6.97-3.86-13.95-7.72-19.44-13.36-5.64-5.64-9.5-13.36-8.76-21.22.74-6.53,4.9-12.62,10.24-16.62,8.02-5.94,18.55-8.31,28.79-8.31,5.2,0,10.09.59,14.69,1.63,7.12,1.48,14.54,4.16,19.14,9.94,4.3,5.64,5.19,12.91,1.04,18.85-2.97,4.16-8.02,6.53-13.21,6.53-2.37,0-4.75-.45-6.97-1.63-6.68-3.56-9.95-12.47-7.27-19.44.74-2.08,1.93-4.01,1.78-6.23-.29-3.41-4.3-5.49-7.87-5.49h-.44c-7.27.59-13.06,8.61-11.28,15.73,1.04,4.45,4.45,7.87,8.16,10.69,8.46,6.68,18.7,10.83,27.9,16.47,5.94,3.41,11.58,7.87,15.58,13.21,2.52,3.12,4.3,6.68,5.34,10.54Z"/><path class="cls-1" d="M575.07,206.46c0,16.18-5.64,29.83-17.21,40.81-11.43,11.13-25.97,16.77-43.78,16.77s-32.36-5.64-43.78-16.77c-11.43-10.98-17.22-24.64-17.22-40.81s5.64-29.68,17.07-40.81c11.43-11.13,26.12-16.77,43.93-16.77s32.5,5.64,43.93,16.77c11.43,11.13,17.07,24.64,17.07,40.81ZM536.48,206.91c.15-13.95-1.93-26.42-6.23-37.25-4.15-10.83-9.65-16.77-16.18-17.66h-1.63c-6.83.15-12.02,5.49-15.73,15.88-3.71,10.54-5.49,23.3-5.64,38.44,0,13.95,2.22,26.27,6.68,36.95,4.45,10.69,9.95,16.47,16.47,17.36.89.15,1.48.15,1.93.15,6.83-.3,11.87-5.49,15.29-15.58,3.41-10.24,5.05-22.86,5.05-38.29Z"/><path class="cls-1" d="M697.37,152.59c-.15,1.04-1.04,1.63-1.93,1.93-6.23,1.78-10.39,6.53-12.61,12.47-2.23,5.79-2.82,12.02-3.12,18.26-.15,3.56,0,7.12.15,10.69,0,11.43.15,22.86.3,34.43,0,9.35,3.56,25.68-6.68,30.72-1.63.74-3.41,1.19-5.04,1.19-3.86,0-7.72-1.93-10.24-4.9-11.13-13.06-50.31-62.04-59.07-72.87-.3,7.57-.3,39.63,0,47.05.3,9.94,2.82,23.15,13.65,26.27,1.19.3,1.93,1.78,1.49,3.12-.45.89-1.34,1.48-2.23,1.48h-36.95c-1.48,0-2.52-1.34-2.37-2.82.15-.89,1.04-1.63,1.93-1.93,6.23-1.63,10.39-6.38,12.61-12.32,2.23-5.79,2.67-12.17,3.12-18.25,0-1.48-.59-46.3-.74-51.5,0-2.97.15-5.94-.89-8.61-1.04-2.82-2.82-5.34-5.2-6.98-2.67-1.93-7.87-2.82-8.61-6.53-.15-.89,0-1.63.3-2.37.59-.74,1.48-1.34,2.67-1.34h35.32c.15,0,.15.15.15.15,7.87.74,12.02,6.38,16.62,12.17,5.64,7.12,39.33,49.57,41.11,51.8,0-3.56.15-25.82-.15-33.1-.44-9.94-2.82-23.15-13.65-26.27-1.19-.45-2.08-1.78-1.49-3.12.3-.89,1.34-1.48,2.23-1.48,6.23-.15,12.32-.15,18.55-.15s12.32,0,18.4.15c1.48,0,2.52,1.19,2.37,2.67Z"/><path class="cls-1" d="M153.16,300.11c-.31,1.88-2.5,2.19-4.54,2.19-1.57,0-2.98-.16-3.91-.16h-15.49c-5.63,0-11.27-.16-16.59-2.19-6.57-2.5-11.11-7.82-14.87-13.46-2.35-3.6-19.34-40.23-21.22-43.99-.47-.94-.94-2.04-1.56-2.97-.16-.47-.63-1.41-1.25-2.5-2.19-4.07-3.29-6.1-3.75-6.88-.94-1.57-2.66-4.23-5.79-6.89-.16-.16-.31-.16-.47-.31-3.44,0-6.88.16-10.33.31-.63,0,.47,11.26.78,12.67.78,6.57,2.5,13.46,7.04,18.47.94,1.25,2.19,2.35,3.6,3.13,1.57.94,4.38,1.25,4.23,3.44,0,1.72-1.41,2.19-2.66,2.19-5.79,0-18.94.16-31.61.16s-25.19-.16-29.73-.16h-2.04c-1.41,0-2.81-.16-2.97-1.88-.31-2.35,2.66-2.82,4.23-3.6,1.41-.94,2.66-2.03,3.75-3.29,5.95-7.51,6.57-11.26,7.36-20.34,1.1-15.96,1.1-31.77,0-47.73-.94-10.17-1.56-23.79-11.11-29.89-1.57-.78-4.38-1.25-4.23-3.6.16-1.41,1.25-1.88,2.5-1.88,18.78-.16,37.56-.31,56.34-.78h6.26c7.82,0,15.81.31,23.47,2.04,25.51,5.32,49.29,28.95,30.67,51.33-5.48,6.73-13.46,11.27-22.22,14.24,7.67,3.6,11.9,9.08,14.87,13.93,2.35,3.91,19.03,40.86,20.9,44.77,1.57,3.76,2.98,7.2,4.7,10.17,2.03,3.44,4.85,6.57,8.45,8.45,1.25.63,3.91,1.25,5.63,2.35,1.1.63,1.72,1.41,1.56,2.66ZM79.36,160.97c-5.17-3.91-12.36-6.1-19.09-6.1h-.78c-1.88.16-4.07.47-5.16,1.88-.94.94-.94,2.5-.94,3.76v52.42c0,1.25,0,2.66.94,3.6.94,1.25,2.66,1.57,4.38,1.57h1.25c9.54-.63,18-5.95,23.32-12.83,9.39-12.52,9.7-33.96-3.91-44.29Z"/><path class="cls-1" d="M399.6,111.77c0,1.61-1.32,2.05-2.49,2.05-5.43,0-17.75.15-29.63.15s-23.61-.15-27.86-.15h-1.91c-1.32,0-2.64-.15-2.79-1.76-.29-2.2,2.49-2.64,3.96-3.52,1.32-.73,2.49-1.76,3.52-2.93,5.57-7.04,6.16-16.43,6.89-24.93,1.03-14.96,1.03-29.77,0-44.73-.88-9.53-1.47-22.29-10.41-28.01-1.47-.73-4.11-1.17-3.96-3.37.15-1.32,1.17-1.76,2.35-1.76h59.69c1.32,0,2.64.15,2.64,1.91,0,2.2-2.49,2.49-3.96,3.37-1.32.88-2.64,1.91-3.67,3.08-5.43,6.89-6.16,16.28-6.89,24.78-1.03,14.96-1.03,29.77,0,44.73.73,8.21,1.32,18.33,7.18,24.93.88,1.17,2.05,2.2,3.37,2.93,1.47.88,4.11,1.17,3.96,3.23Z"/></g></svg>